<mxfile host="app.diagrams.net" modified="2021-04-05T08:36:30.461Z" agent="5.0 (Windows NT 10.0; Win64; x64) AppleWebKit/537.36 (KHTML, like Gecko) Chrome/89.0.4389.114 Safari/537.36" etag="gvPfNXF93LsrU-cuh3JC" version="14.5.7" type="github">
  <diagram id="9tkbLnfqWx8zzKCWQyHa" name="Page-1">
    <mxGraphModel dx="1114" dy="1177" grid="1" gridSize="10" guides="1" tooltips="1" connect="1" arrows="1" fold="1" page="1" pageScale="1" pageWidth="827" pageHeight="1169" math="0" shadow="0">
      <root>
        <mxCell id="0" />
        <mxCell id="1" parent="0" />
        <mxCell id="quFzy3KaZLRwu3-NNz36-15" style="edgeStyle=orthogonalEdgeStyle;rounded=0;orthogonalLoop=1;jettySize=auto;html=1;exitX=0.5;exitY=1;exitDx=0;exitDy=0;entryX=0.5;entryY=0;entryDx=0;entryDy=0;fontSize=22;" edge="1" parent="1" source="quFzy3KaZLRwu3-NNz36-1" target="quFzy3KaZLRwu3-NNz36-2">
          <mxGeometry relative="1" as="geometry" />
        </mxCell>
        <mxCell id="quFzy3KaZLRwu3-NNz36-16" style="edgeStyle=orthogonalEdgeStyle;rounded=0;orthogonalLoop=1;jettySize=auto;html=1;exitX=0.5;exitY=1;exitDx=0;exitDy=0;entryX=0.586;entryY=-0.045;entryDx=0;entryDy=0;entryPerimeter=0;fontSize=22;" edge="1" parent="1" source="quFzy3KaZLRwu3-NNz36-1" target="quFzy3KaZLRwu3-NNz36-3">
          <mxGeometry relative="1" as="geometry" />
        </mxCell>
        <mxCell id="quFzy3KaZLRwu3-NNz36-1" value="C" style="rounded=0;whiteSpace=wrap;html=1;fontSize=22;" vertex="1" parent="1">
          <mxGeometry x="340" y="110" width="120" height="60" as="geometry" />
        </mxCell>
        <mxCell id="quFzy3KaZLRwu3-NNz36-23" style="edgeStyle=orthogonalEdgeStyle;rounded=0;orthogonalLoop=1;jettySize=auto;html=1;exitX=0.5;exitY=1;exitDx=0;exitDy=0;fontSize=22;" edge="1" parent="1" source="quFzy3KaZLRwu3-NNz36-2" target="quFzy3KaZLRwu3-NNz36-4">
          <mxGeometry relative="1" as="geometry" />
        </mxCell>
        <mxCell id="quFzy3KaZLRwu3-NNz36-24" style="edgeStyle=orthogonalEdgeStyle;rounded=0;orthogonalLoop=1;jettySize=auto;html=1;exitX=0.5;exitY=1;exitDx=0;exitDy=0;entryX=0.5;entryY=0;entryDx=0;entryDy=0;fontSize=22;" edge="1" parent="1" source="quFzy3KaZLRwu3-NNz36-2" target="quFzy3KaZLRwu3-NNz36-5">
          <mxGeometry relative="1" as="geometry" />
        </mxCell>
        <mxCell id="quFzy3KaZLRwu3-NNz36-2" value="A" style="rounded=1;whiteSpace=wrap;html=1;fontSize=22;" vertex="1" parent="1">
          <mxGeometry x="150" y="220" width="120" height="60" as="geometry" />
        </mxCell>
        <mxCell id="quFzy3KaZLRwu3-NNz36-19" style="edgeStyle=orthogonalEdgeStyle;rounded=0;orthogonalLoop=1;jettySize=auto;html=1;exitX=0.5;exitY=1;exitDx=0;exitDy=0;entryX=0.5;entryY=0;entryDx=0;entryDy=0;fontSize=22;" edge="1" parent="1" source="quFzy3KaZLRwu3-NNz36-3" target="quFzy3KaZLRwu3-NNz36-6">
          <mxGeometry relative="1" as="geometry" />
        </mxCell>
        <mxCell id="quFzy3KaZLRwu3-NNz36-20" style="edgeStyle=orthogonalEdgeStyle;rounded=0;orthogonalLoop=1;jettySize=auto;html=1;exitX=0.5;exitY=1;exitDx=0;exitDy=0;entryX=0.5;entryY=0;entryDx=0;entryDy=0;fontSize=22;" edge="1" parent="1" source="quFzy3KaZLRwu3-NNz36-3" target="quFzy3KaZLRwu3-NNz36-7">
          <mxGeometry relative="1" as="geometry" />
        </mxCell>
        <mxCell id="quFzy3KaZLRwu3-NNz36-3" value="B" style="rounded=1;whiteSpace=wrap;html=1;fontSize=22;" vertex="1" parent="1">
          <mxGeometry x="550" y="220" width="120" height="60" as="geometry" />
        </mxCell>
        <mxCell id="quFzy3KaZLRwu3-NNz36-4" value="+:25&amp;nbsp; &amp;nbsp;- :0" style="rounded=1;whiteSpace=wrap;html=1;fontSize=22;" vertex="1" parent="1">
          <mxGeometry x="40" y="320" width="120" height="60" as="geometry" />
        </mxCell>
        <mxCell id="quFzy3KaZLRwu3-NNz36-27" style="edgeStyle=orthogonalEdgeStyle;rounded=0;orthogonalLoop=1;jettySize=auto;html=1;exitX=0.5;exitY=1;exitDx=0;exitDy=0;fontSize=22;" edge="1" parent="1" source="quFzy3KaZLRwu3-NNz36-5" target="quFzy3KaZLRwu3-NNz36-8">
          <mxGeometry relative="1" as="geometry" />
        </mxCell>
        <mxCell id="quFzy3KaZLRwu3-NNz36-28" style="edgeStyle=orthogonalEdgeStyle;rounded=0;orthogonalLoop=1;jettySize=auto;html=1;exitX=0.5;exitY=1;exitDx=0;exitDy=0;entryX=0.5;entryY=0;entryDx=0;entryDy=0;fontSize=22;" edge="1" parent="1" source="quFzy3KaZLRwu3-NNz36-5" target="quFzy3KaZLRwu3-NNz36-11">
          <mxGeometry relative="1" as="geometry" />
        </mxCell>
        <mxCell id="quFzy3KaZLRwu3-NNz36-5" value="B" style="rounded=1;whiteSpace=wrap;html=1;fontSize=22;" vertex="1" parent="1">
          <mxGeometry x="240" y="320" width="120" height="60" as="geometry" />
        </mxCell>
        <mxCell id="quFzy3KaZLRwu3-NNz36-6" value="A" style="rounded=1;whiteSpace=wrap;html=1;fontSize=22;" vertex="1" parent="1">
          <mxGeometry x="450" y="320" width="120" height="60" as="geometry" />
        </mxCell>
        <mxCell id="quFzy3KaZLRwu3-NNz36-31" style="edgeStyle=orthogonalEdgeStyle;rounded=0;orthogonalLoop=1;jettySize=auto;html=1;exitX=0.5;exitY=1;exitDx=0;exitDy=0;fontSize=22;" edge="1" parent="1" source="quFzy3KaZLRwu3-NNz36-7" target="quFzy3KaZLRwu3-NNz36-14">
          <mxGeometry relative="1" as="geometry" />
        </mxCell>
        <mxCell id="quFzy3KaZLRwu3-NNz36-32" style="edgeStyle=orthogonalEdgeStyle;rounded=0;orthogonalLoop=1;jettySize=auto;html=1;exitX=0.5;exitY=1;exitDx=0;exitDy=0;entryX=0.5;entryY=0;entryDx=0;entryDy=0;fontSize=22;" edge="1" parent="1" source="quFzy3KaZLRwu3-NNz36-7" target="quFzy3KaZLRwu3-NNz36-13">
          <mxGeometry relative="1" as="geometry" />
        </mxCell>
        <mxCell id="quFzy3KaZLRwu3-NNz36-7" value="A" style="rounded=1;whiteSpace=wrap;html=1;fontSize=22;" vertex="1" parent="1">
          <mxGeometry x="670" y="320" width="120" height="60" as="geometry" />
        </mxCell>
        <mxCell id="quFzy3KaZLRwu3-NNz36-8" value="+:0&amp;nbsp; &amp;nbsp;-:20" style="rounded=1;whiteSpace=wrap;html=1;fontSize=22;" vertex="1" parent="1">
          <mxGeometry x="150" y="440" width="120" height="60" as="geometry" />
        </mxCell>
        <mxCell id="quFzy3KaZLRwu3-NNz36-11" value="+:0&amp;nbsp; &amp;nbsp;-:5" style="rounded=1;whiteSpace=wrap;html=1;fontSize=22;" vertex="1" parent="1">
          <mxGeometry x="320" y="440" width="120" height="60" as="geometry" />
        </mxCell>
        <mxCell id="quFzy3KaZLRwu3-NNz36-13" value="+:0&amp;nbsp; &amp;nbsp;-:20" style="rounded=1;whiteSpace=wrap;html=1;fontSize=22;" vertex="1" parent="1">
          <mxGeometry x="760" y="430" width="120" height="60" as="geometry" />
        </mxCell>
        <mxCell id="quFzy3KaZLRwu3-NNz36-14" value="+:0&amp;nbsp; -:0" style="rounded=1;whiteSpace=wrap;html=1;fontSize=22;" vertex="1" parent="1">
          <mxGeometry x="570" y="430" width="120" height="60" as="geometry" />
        </mxCell>
        <mxCell id="quFzy3KaZLRwu3-NNz36-17" value="T" style="text;html=1;align=center;verticalAlign=middle;resizable=0;points=[];autosize=1;fontSize=22;" vertex="1" parent="1">
          <mxGeometry x="295" y="175" width="30" height="30" as="geometry" />
        </mxCell>
        <mxCell id="quFzy3KaZLRwu3-NNz36-18" value="F" style="text;html=1;align=center;verticalAlign=middle;resizable=0;points=[];autosize=1;fontSize=22;" vertex="1" parent="1">
          <mxGeometry x="505" y="165" width="30" height="30" as="geometry" />
        </mxCell>
        <mxCell id="quFzy3KaZLRwu3-NNz36-21" value="T" style="text;html=1;align=center;verticalAlign=middle;resizable=0;points=[];autosize=1;fontSize=22;" vertex="1" parent="1">
          <mxGeometry x="535" y="275" width="30" height="30" as="geometry" />
        </mxCell>
        <mxCell id="quFzy3KaZLRwu3-NNz36-22" value="F" style="text;html=1;align=center;verticalAlign=middle;resizable=0;points=[];autosize=1;fontSize=22;" vertex="1" parent="1">
          <mxGeometry x="665" y="275" width="30" height="30" as="geometry" />
        </mxCell>
        <mxCell id="quFzy3KaZLRwu3-NNz36-25" value="T" style="text;html=1;align=center;verticalAlign=middle;resizable=0;points=[];autosize=1;fontSize=22;" vertex="1" parent="1">
          <mxGeometry x="115" y="265" width="30" height="30" as="geometry" />
        </mxCell>
        <mxCell id="quFzy3KaZLRwu3-NNz36-26" value="F" style="text;html=1;align=center;verticalAlign=middle;resizable=0;points=[];autosize=1;fontSize=22;" vertex="1" parent="1">
          <mxGeometry x="275" y="265" width="30" height="30" as="geometry" />
        </mxCell>
        <mxCell id="quFzy3KaZLRwu3-NNz36-29" value="T" style="text;html=1;align=center;verticalAlign=middle;resizable=0;points=[];autosize=1;fontSize=22;" vertex="1" parent="1">
          <mxGeometry x="215" y="385" width="30" height="30" as="geometry" />
        </mxCell>
        <mxCell id="quFzy3KaZLRwu3-NNz36-30" value="F" style="text;html=1;align=center;verticalAlign=middle;resizable=0;points=[];autosize=1;fontSize=22;" vertex="1" parent="1">
          <mxGeometry x="325" y="385" width="30" height="30" as="geometry" />
        </mxCell>
        <mxCell id="quFzy3KaZLRwu3-NNz36-33" value="T" style="text;html=1;align=center;verticalAlign=middle;resizable=0;points=[];autosize=1;fontSize=22;" vertex="1" parent="1">
          <mxGeometry x="655" y="375" width="30" height="30" as="geometry" />
        </mxCell>
        <mxCell id="quFzy3KaZLRwu3-NNz36-34" value="F" style="text;html=1;align=center;verticalAlign=middle;resizable=0;points=[];autosize=1;fontSize=22;" vertex="1" parent="1">
          <mxGeometry x="765" y="375" width="30" height="30" as="geometry" />
        </mxCell>
      </root>
    </mxGraphModel>
  </diagram>
</mxfile>
